/* XPM */
static char const * const lineset[] = {
/* columns rows colors chars-per-pixel */
"62 64 68 1 ",
"  c #0C0C0C",
". c #141414",
"X c #1B1B1B",
"o c #242424",
"O c #2C2C2C",
"+ c #343434",
"@ c #3C3C3C",
"# c #434343",
"$ c #4B4B4B",
"% c #545454",
"& c #5B5B5B",
"* c #636363",
"= c #6C6B6C",
"- c #747474",
"; c #7C7C7C",
": c #81787E",
"> c #7E7D81",
", c #7B888B",
"< c #848484",
"1 c #85818E",
"2 c #86898C",
"3 c #8C8C8C",
"4 c #8F9085",
"5 c #908D93",
"6 c #989595",
"7 c #9C9890",
"8 c #94969C",
"9 c #969A9D",
"0 c #9B9B9B",
"q c #A99D98",
"w c #A4A39F",
"e c #9B8FA2",
"r c #9C9CA3",
"t c #A59DA0",
"y c #A4A4A4",
"u c #ABA0AC",
"i c #ABABAB",
"p c #A4A2B1",
"a c #B1A9B4",
"s c #A6B1B1",
"d c #B4B4B4",
"f c #B3B0BB",
"g c #B4B8BB",
"h c #BBBBBB",
"j c #C3C3C3",
"k c #C9C6C4",
"l c #C8C8C6",
"z c #CBCBCB",
"x c #D2CCCC",
"c c #D8D4CF",
"v c #CCD3D6",
"b c #D3D3D3",
"n c #DDD8D3",
"m c #D4D4D9",
"M c #D9D6DA",
"N c #DBDBDC",
"B c #E2DDD6",
"V c #E6E2DE",
"C c #DFDFE4",
"Z c #DEE0E3",
"A c #E4E4E4",
"S c #EAE7E4",
"D c #E6E6E9",
"F c #E8E7E8",
"G c #E7E8EB",
"H c #EBEBEB",
"J c #F4F4F4",
"K c #FFFFFF",
/* pixels */
"JKKKKKz+xKKKJ-bKKKKKKKy6KKKKKh-JKKKKKb@zKKKKKKKKKKJDg=O..O&0MJ",
"JKKKKKD@hKKKK05KKKKKKK-jKKKKJ;hKKKKKK<*JKKKKKKKJNg=@X.+*wxHKKK",
"JKKKKKJ$0KKKKD=DKKKKKb*HKKKKj-JKKKKKV#gKKKKKJby*+.X@-iNKKKKKKK",
"JKKKKKK=;KKKKK30KKKKKy3KKKKJ-hKKKKKK5%JKKHz6%OXo$<hFKKKKKKKKKK",
"JKKKKKK3&JKKKKx=HKKKK-jKKKKh-JKKKKKF#yHj<$oXo%6zJKKKKKKKKKKKKK",
"JKKKKKKd#HKKKKJ;gKKKN*HKKKJ-jKKKKKK6o=#X.+*0bJKKKKKKKKKKKKKJKH",
"JKKKKKKx+bKKKKKj-JKKy<KKKKg;JKKJNi=o .+=yNKKKKKKKKKKKKKKKKKKM%",
"JKKKKKKD@gKKKKKJ-jKK-hKKKH=jJb0*OX o;gDJKKKKKKKKKKKKKKKKKKKb$o",
"JKKKKKKJ%6KKKKKKi>KV*AKKKi$3%o.o%<+2KKKKKKKKKKKKKKKKKKKKKKl#+f",
"JKKKKKKK--KKKKKKF&ny<KHh;+X.O&0zJh#nKKKKKKKKKKKKKKKKKKKKKh+@lK",
"HKKKKKKK5$JKKKKJJ2>*;;@. +=ybKKKJ*;KKKKKKKKKKKKKKKKKKKKKgo#xKK",
"CHHDHHHHg=nFDFFHFg*O .+%+jKKKKKKz@zKKKKKKKKKKKKKKKKKKKKio$nKKK",
"HHHHHHHHHAHHFFFFGDZ=-gD0<KKKKKKK-=KKKKKKKKKKKKKKKKKKKK0X%NKKKK",
"SmHxhNVfZAxZcvDngDD3FKD&bKKKKKKb#jKKKKKKKKKKKKKKKKKKK6X&DKKKKK",
"Sat1:5y,y9yr453q8GA=hK6<KKKKKKK>*JKKKKKKKKKKKKKKKKKJ3X=DKKKKKK",
"Se55<r8sup957<,6hHH6=n&bKKKKKKN#gKKKKKKKKKKKKKKKKKJ<X-FKKKKKKK",
"BpkhlfMNMMbxgzhbNHSz%&5KKKKKKK3&JKKKKKKKKKKKKKKKKJ;X<JKKKKKKKK",
"VCHHJHHHHHHHHHHHHDSD;+DKKKKKKD#iKKKKKKKKKKKKKKKKH=X3JKKKKKKKKK",
"t**hVCNNDl=hNVNN60DH-+VKKKKKK6$HKKKKKKKKKKKKKKKD*X6JKKKKKKKKKK",
"D3 %DJJJJN+iJJJH%gJz&&0KKKKKF$yKKKKKKKKKKKKKKKV%o0KKKKKKKKKKKK",
"JJ* <KKKKJ$5KKKl%HK;yj&HKKKKy#HKKKKKKKKKKKKKKN$oiKKKKKKKKKKKKK",
"JKn+XhKKKK*-KKK53Kj&HJ*gKKKJ%6KKKKKKKKKKKKKKb$OgKKKKKKKKKKKKKK",
"JKKgX@NKKK3%JKJ*jK=yKKy*JKKi@ZKKKKKKKKKKKKKz@+hKKKKKKKKKKKKKKK",
"JKKK< =JKKi@HKj&Hg&JKKF%zKJ&2KKKKKKKKKKKKKj@+jKKKKKKKKKKKKKKKK",
"JKKKH%.0KKj+MK;6J&gKKKK3;Kh@NKKKKKKKKKKKKh+@zKKKKKKKKKKKKKKKKK",
"JKKKKzOojKN+jH%by*JKKKKb$N*;KKKKKKKKKKKKgO#xKKKKKKKKKKKKKKKKKK",
"JKKKKKy.$DH#yi*V%hKKKKKJ-&@zKKKKKKKKKKKgo$bKKKKKKKKKKKKKKKKKKK",
"JKKKKKJ- ;J%;=00=JKKKKKKg.-KKKKKKKKKKKyX$NKKKKKKKKKKKKKKKKKKKK",
"JKKKKKKD$.y-#%j%jKKKKKKKjoyKKKKKKKKKKyo%DKKKKKKKKKKKKKKKKKKKKK",
"JKKKKKKKjoO* =3-JKKKKKKK-X=KKKKKKKKK0o&DKKKKKKKKKKKKKKKKKKKKKK",
"JKKKKKKKK6. .6%vKKKKKKKN@6$bKKKKKKJ0o&DKKKKKKKKKKKKKKKKKKKKKKK",
"JKKKKKKKKJ= o&<KKKKKKKK3%J-<KKKKKK6o*DKKKKKKKKKKKKKKKKKKKKKKKK",
"JKKKKKKKKKN+ X0JKKKKKKD#yKj$DKKKJ6X=HKKKKKKKKKKKKKKKKKKKKKKKKK",
"JKKKKKKKKKJ# .o$6NJKKK0$HKJ%yKKJ3X=HKKKKKKKKKKKKKKKKKKKKKKKKKK",
"JKKKKKKKKKho  @2$+=hJH%6KKK0&JK3X-JKKKKKKKKKKKKKKKKKKKKKKKKKKK",
"JKKKKKKKKK- .  3Hh=+$=@ZKKKD#j<X;HKKKKKKKKKKKKKKKKKKKKKKKKKKKK",
"JKKKKKKKKD+#=ooXhKJM<.o-hJKK;+o;JKKKKKKKKKKKKKKKKKKKKKKKKKKKKK",
"JKKKKKKKKyoii+3 @NKKj+0=@%0n- ;JKKKKKKKKKKKKKKKKKKKKKKKKKKKKKK",
"JKKKKKKKJ*&JjOz= =JK=-KJM5#o  yKKKKKKKKKKKKKKKKKKKKKKKKKKKKKKK",
"JKKKKKKKN@hKn+gD#.0z#zKKKJ-.#o@yDKKKKKKKKKKKKKKKKKKKKKKKKKKKKK",
"jDKKKKKK3=JKH@6Kjoo%=JKKJ<o<JjOO#;kJKKKKKKKKKKKKKKKKKKKKKKKKKK",
"&@-hHKKb@iKKJ#;KK0..gKKJ<X<JKK-*g*@&wDKKKKKKKKKKKKKKKKKKKKKKKK",
"i=+o#3z;#FKKK&*KKJ% -JJ<o<JKKKj#DJb5$#>jJKKKKKKKKKKKKKKKKKKKKK",
"JJn0%oOX%NJKK-#JKA#..02o<JKKKKJ$0KKKHg=#*yVKKKKKKKKKKKKKKKKKKK",
"JKKKJh+.o+=gA6OVKw$yo.o5JKKKKKK6%JKKKKKb3%$<jJKKKKKKKKKKKKKKKK",
"JKKKKhX#g;@o#$olJ&5J$ @VKKKKKKKN@jKKKKKKKHh=#&yDKKKKKKKKKKKKKK",
"JKKKH&X6KKAi=o.$=#z>o+ >KKKKKKKK=-KKKKKKKKKKN6%$;jJKKKKKKKKKKK",
"JKKKy@#vKKKKJl+o..$.-z+.iKKKKKKKh@VKKKKKKKKKKKJh;$&0NKKKKKKKKK",
"JKKD$*=JKKKKKJ##o..oO-= +bKKKKKKH$yKKKKKKKKKKKKKKDy&#-hHKKKKKK",
"JKK3&=0KKKKKKK= O+0h-+X. &HKKKKKK3&JKKKKKKKKKKKKKKKJz;#&0NKKKK",
"JKb#0%NKKKKKKK3XiMJKJDy&o.%0bJKKKb@jKKKKKKKKKKKKKKKKKKDi=$-hHK",
"JK--6=KKKKKKKKyONKKKKKKJjO.X+=iDKK*;KKKKKKKKKKKKKKKKKKKKJb6%&6",
"Jj#z*iKKKKKKKKhOzKKKKKKKKy..*#o#;j6@DKKKKKKKKKKKKKKKKKKKKKKHg-",
"D*>z%FKKKKKKKKbogKKKKKKKKJ= *ni=+O+.0JKKKKKKKKKKKKKKKKKKKKKKKK",
"6#N3>KKKKKKKKKD+6KKKKKKKKKD# 0KKN0&XX&yNKKKKKKKKKKKKKKKKKKKKKK",
"%-D&jJKKKKKKKKJ$-KKKKKKKKKKhXojKKKJiXOO+=hHKKKKKKKKKKKKKKKKKKK",
"yNh&JKKKKKKKKKK*%KKKKKKKKKKK6 #VKKKH$-g-@O#<zJKKKKKKKKKKKKKKKK",
"JK;0KKKKKKKKKKK;#HKKKKKKKKKKJ& =JKKK6@FKNy*++&0NKKKKKKKKKKKKKK",
"JD%bKKKKKKKKKKK0ODKKKKKKKKKKKb+.yKKKnOyKKKJb6$o+=gHKKKKKKKKKKK",
"Ji=JKKKKKKKKKKKhozKKKKKKKKKKKKg.OzKKJ=%JKKKKKHh;@o#<zJKKKKKKKK",
"H=iKKKKKKKKKKKKboiKKKKKKKKKKKKK< %HKKgojKKKKKKKKVi*Oo&rNJKKKKK",
"j%DKKKKKKKKKKKKDO3KKKKKKKKKKKKKH% ;JKH+-KKKKKKKKKKJb6$o@-gHKKK",
";<KKKKKKKKKKKKKJ#=KKKKKKKKKKKKKKzO.iKK>ONKKKKKKKKKKKKHh-@o#3zJ",
"ixKKKKKKKKKKKKKJ%%KKKKKKKKKKKKKKK6 @NKjXyKKKKKKKKKKKKKKKN6#X@j"
};
