/* XPM */
static char const * const lineset_pointsonly[] = {
/* columns rows colors chars-per-pixel */
"64 64 16 1 ",
"  c #FD0D1B",
". c #FD1923",
"X c #FD272E",
"o c #FD363B",
"O c #FD464A",
"+ c #FD575A",
"@ c #FD686A",
"# c #FE797A",
"$ c #FE898B",
"% c #FE9A9B",
"& c #FEABAC",
"* c #FFBCBD",
"= c #FFCDCD",
"- c #FFDEDE",
"; c #FFEFEF",
": c gray100",
/* pixels */
":::::::::::::::::::@   X:::::::::::::::::::::::;X  .*:::::::::::",
"::::::::::::::::::;     &::::::::::::::::::::::::&%;::::::::::::",
"::::::::::::::::::-     %:::::::::::::::::::::::::::::::::::::::",
":::::::::::::::::::O   .;::::::::;#Xo%::::::::::::::::::::::::::",
":::::::::::::::::::-@.+*:::::::::#    *:::::::::::::::::::::::::",
":::::::::::::::::::::::::::::::::X    @:::::::::::::::::::::::*X",
"::::::&%;::::::::::::::::::::::::o    #:::::::::::::::::::::::X ",
"::::;X  .*:::::::::::::::::::::::%    -::::::::::::::::::::::=  ",
"::::$    +::::::::::::::::::::::::*@#-::::::::::::::::::::::::. ",
"::::+    .::::::::::::::::::::::::::::::::::::::::::::::::::::$ ",
"::::%    @:::::::::::::::::::::::::::::::%oX#;:::::::::::::::::-",
":::::@  O-::::::::::::::::::::::::::::::*    #::::::::::::::::::",
"::::::;-::::::::::::::::::::::::::::::::@    X::::::::::::::::::",
"::::::::::::::=:::::::::::::::::::::::::#    o::::::::::::::::::",
"::::::::::::$. X*:::::::::::::::::::::::-    %::::::::::::::::::",
":::::::::::-    X::::::::::::::::::::::::-#@*:::::::::::::::::::",
":::::::::::$     =::::::::::::::::::::::::::::::::::::::::::::::",
":::::::::::=    .::::::::::%+$;:::::::::::::::::::::::::::::::::",
"::::::::::::+   $:::::::::@   X:::::::::::::::::::::::::::::::::",
":::::::::::::=$-:::::::::;     &:::::::::::::::::::::::*+.@-::::",
"-::::::::::::::::::::::::-     %::::::::::::::::::::::;.   O::::",
" O-:::::::::::::::::::::::O   .;::::::::::::::::::::::%     -:::",
"  @:::::::::::::::::::::::-@.+*:::::::::::::::::::::::&     ;:::",
"  .::::::::::::::::::::::::::::::::::::::::::::::::::::X   @::::",
"  +::::::::::::::::::::::::::::::::::::::::::-$=:::::::;$+%:::::",
" .*:::::::::::::::::::::::::::::::::::::::::$   +:::::::::::::::",
"%;::::::::::::::::::::::::::::::::::::::::::.    =::::::::::::::",
":::::::::::::::::::::::::::::::::::::::::::=     $::::::::::::::",
":::::::::::::::;#Xo%::::::::::::::::::::::::X    -::::::::::::::",
":::::::::::::::#    *:::::::::::::::::::::::*X .$:::::::::::::::",
":::::::::::::::X    @:::::::::::::::::::::::::=:::::::::::::::::",
":::::::::::::::o    #::::::::::=$-::::::::::::::::::::::::::::::",
":::::::::::::::%    -:::::::::+   $:::::::::::::::::::::::::::::",
"::::::::::::::::*@#-:::::::::=    .::::::::::::::::::::::::*@#-:",
":::::::::::::::::::::::::::::$     =::::::::::::::::::::::%    -",
"::%+$;:::::::::::::::::::::::-    X:::::::::::::::::::::::o    #",
":@   X::::::::::::::::::::::::$. X*:::::::::::::::::::::::X    @",
";     &:::::::::::::::::::::::::=:::::::::::::::::::::::::#    *",
"-     %::::::::::::::::::::::::::::::::=::::::::::::::::::;#Xo%:",
":O   .;::::::::::::::::::::::::::::::$. X*::::::::::::::::::::::",
":-@.+*::::::::::::::::::::::::::::::-    X::::::::::::::::::::::",
"::::::::::::::::::::::::::::::::::::$     =:::::::::::::::::::::",
":::::::::*@#-:::::::::::::::::::::::=    .::::::::::::::::::::::",
"::::::::%    -:::::::::::::::::::::::+   $::::::::::::::::::::::",
"::::::::o    #::::::::::::::::::::::::=$-:::::::::::::::::::::::",
"::::::::X    @::::::::::::::::::::::::::::::::::::::::::::::::::",
"::::::::#    *:::::::::%oX#;::::::::::::::::::::::::::::::::::::",
"::::::::;#Xo%:::::::::*    #:::::::::::::::::::::::::-;:::::::::",
"::::::::::::::::::::::@    X:::::::::::::::::::::::-O  @::::::::",
"::::::::::::::::::::::#    o:::::::::::::::::::::::@    %:::::::",
"::::::::::::::::::::::-    %:::::::::::::::::::::::.    +:::::::",
":::::::::::::::::::::::-#@*::::::::::::::::::::::::+    $:::::::",
":::::::::::::::::::::::::::::::::::::::::::::::::::*.  X;:::::::",
"::::::::::::::::::::::::::::::::::::::::::::::*+.@-:;%&:::::::::",
":::::::::::::::::::::::::::::::::::::::::::::;.   O:::::::::::::",
":::::::::::::::::::::::::::::::::::::::::::::%     -::::::::::::",
":::::::::::::::::::-;::::::::::::::::::::::::&     ;::::::::::::",
":::::::::::::::::-O  @::::::::::::::::::::::::X   @:::::::::::::",
":::::::::::::::::@    %:::::::::::::::::::::::;$+%::::::::::::::",
":::::::::::::::::.    +:::::::::::::::::::::::::::::::::::::::::",
":::::::::::::::::+    $:::::::::-#@*::::::::::::::::::::::::::::",
":::::::::::::::::*.  X;::::::::-    %:::::::::::::::::::::::::::",
"::::::::::::::::::;%&::::::::::#    o:::::::::::::::::::::::-@.+",
":::::=:::::::::::::::::::::::::@    X:::::::::::::::::::::::O   "
};
